<svg width="560" height="161" viewBox="0 0 560 161" fill="none" xmlns="http://www.w3.org/2000/svg">
<path d="M10.956 128V35.6H56.1C67.716 35.6 76.428 37.8 82.236 42.2C88.132 46.6 91.08 52.408 91.08 59.624C91.08 64.464 89.892 68.688 87.516 72.296C85.14 75.816 81.884 78.544 77.748 80.48C73.612 82.416 68.86 83.384 63.492 83.384L66 77.972C71.808 77.972 76.956 78.94 81.444 80.876C85.932 82.724 89.408 85.496 91.872 89.192C94.424 92.888 95.7 97.42 95.7 102.788C95.7 110.708 92.576 116.912 86.328 121.4C80.08 125.8 70.884 128 58.74 128H10.956ZM32.208 111.896H57.156C62.7 111.896 66.88 111.016 69.696 109.256C72.6 107.408 74.052 104.504 74.052 100.544C74.052 96.672 72.6 93.812 69.696 91.964C66.88 90.028 62.7 89.06 57.156 89.06H30.624V73.484H53.46C58.652 73.484 62.612 72.604 65.34 70.844C68.156 68.996 69.564 66.224 69.564 62.528C69.564 58.92 68.156 56.236 65.34 54.476C62.612 52.628 58.652 51.704 53.46 51.704H32.208V111.896ZM111.89 128V35.6H133.274V110.576H179.606V128H111.89ZM234.887 129.584C227.583 129.584 220.807 128.396 214.559 126.02C208.399 123.644 203.031 120.3 198.455 115.988C193.967 111.676 190.447 106.616 187.895 100.808C185.431 95 184.199 88.664 184.199 81.8C184.199 74.936 185.431 68.6 187.895 62.792C190.447 56.984 194.011 51.924 198.587 47.612C203.163 43.3 208.531 39.956 214.691 37.58C220.851 35.204 227.539 34.016 234.755 34.016C242.059 34.016 248.747 35.204 254.819 37.58C260.979 39.956 266.303 43.3 270.791 47.612C275.367 51.924 278.931 56.984 281.483 62.792C284.035 68.512 285.311 74.848 285.311 81.8C285.311 88.664 284.035 95.044 281.483 100.94C278.931 106.748 275.367 111.808 270.791 116.12C266.303 120.344 260.979 123.644 254.819 126.02C248.747 128.396 242.103 129.584 234.887 129.584ZM234.755 111.368C238.891 111.368 242.675 110.664 246.107 109.256C249.627 107.848 252.707 105.824 255.347 103.184C257.987 100.544 260.011 97.42 261.419 93.812C262.915 90.204 263.663 86.2 263.663 81.8C263.663 77.4 262.915 73.396 261.419 69.788C260.011 66.18 257.987 63.056 255.347 60.416C252.795 57.776 249.759 55.752 246.239 54.344C242.719 52.936 238.891 52.232 234.755 52.232C230.619 52.232 226.791 52.936 223.271 54.344C219.839 55.752 216.803 57.776 214.163 60.416C211.523 63.056 209.455 66.18 207.959 69.788C206.551 73.396 205.847 77.4 205.847 81.8C205.847 86.112 206.551 90.116 207.959 93.812C209.455 97.42 211.479 100.544 214.031 103.184C216.671 105.824 219.751 107.848 223.271 109.256C226.791 110.664 230.619 111.368 234.755 111.368ZM345.998 129.584C338.694 129.584 331.962 128.44 325.802 126.152C319.73 123.776 314.406 120.432 309.83 116.12C305.342 111.808 301.822 106.748 299.27 100.94C296.806 95.132 295.574 88.752 295.574 81.8C295.574 74.848 296.806 68.468 299.27 62.66C301.822 56.852 305.386 51.792 309.962 47.48C314.538 43.168 319.906 39.868 326.066 37.58C332.226 35.204 339.002 34.016 346.394 34.016C354.578 34.016 361.926 35.38 368.438 38.108C375.038 40.836 380.582 44.796 385.07 49.988L371.342 62.66C367.998 59.14 364.346 56.544 360.386 54.872C356.426 53.112 352.114 52.232 347.45 52.232C342.962 52.232 338.87 52.936 335.174 54.344C331.478 55.752 328.266 57.776 325.538 60.416C322.898 63.056 320.83 66.18 319.334 69.788C317.926 73.396 317.222 77.4 317.222 81.8C317.222 86.112 317.926 90.072 319.334 93.68C320.83 97.288 322.898 100.456 325.538 103.184C328.266 105.824 331.434 107.848 335.042 109.256C338.738 110.664 342.786 111.368 347.186 111.368C351.41 111.368 355.502 110.708 359.462 109.388C363.51 107.98 367.426 105.648 371.21 102.392L383.354 117.836C378.338 121.62 372.486 124.524 365.798 126.548C359.198 128.572 352.598 129.584 345.998 129.584ZM363.818 115.064V80.348H383.354V117.836L363.818 115.064ZM410.843 129.056C407.323 129.056 404.287 127.868 401.735 125.492C399.271 123.028 398.039 119.904 398.039 116.12C398.039 112.336 399.271 109.3 401.735 107.012C404.287 104.636 407.323 103.448 410.843 103.448C414.451 103.448 417.487 104.636 419.951 107.012C422.415 109.3 423.647 112.336 423.647 116.12C423.647 119.904 422.415 123.028 419.951 125.492C417.487 127.868 414.451 129.056 410.843 129.056ZM520.656 128.66C513.792 128.66 507.412 127.516 501.516 125.228C495.708 122.852 490.648 119.552 486.336 115.328C482.024 111.104 478.68 106.176 476.304 100.544C473.928 94.824 472.74 88.576 472.74 81.8C472.74 75.024 473.928 68.82 476.304 63.188C478.68 57.468 482.024 52.496 486.336 48.272C490.736 44.048 495.84 40.792 501.648 38.504C507.456 36.128 513.792 34.94 520.656 34.94C527.168 34.94 533.24 35.996 538.872 38.108C544.592 40.22 549.476 43.432 553.524 47.744L549.3 52.1C545.34 48.228 540.94 45.456 536.1 43.784C531.348 42.024 526.288 41.144 520.92 41.144C515.024 41.144 509.524 42.156 504.42 44.18C499.404 46.204 495.004 49.064 491.22 52.76C487.524 56.456 484.62 60.768 482.508 65.696C480.484 70.624 479.472 75.992 479.472 81.8C479.472 87.608 480.484 92.976 482.508 97.904C484.62 102.832 487.524 107.144 491.22 110.84C495.004 114.536 499.404 117.396 504.42 119.42C509.524 121.444 515.024 122.456 520.92 122.456C526.288 122.456 531.348 121.62 536.1 119.948C540.94 118.188 545.34 115.328 549.3 111.368L553.524 115.724C549.476 120.036 544.592 123.292 538.872 125.492C533.24 127.604 527.168 128.66 520.656 128.66Z" fill="white"/>
</svg>
